<?xml version="1.0" encoding="UTF-8"?>
<svg id="b" data-name="图层 2" xmlns="http://www.w3.org/2000/svg" viewBox="0 0 100.304382 90.69989">
  <defs>
    <style>
      .d {
        fill: #035679;
      }
    </style>
  </defs>
  <g id="c" data-name="图层 1">
    <g>
      <polygon class="d" points="41.169739 72.900391 41.169739 74.9104 36.90271 74.9104 36.90271 72.900391 34.249695 72.900391 34.249695 78.519394 36.90271 78.519394 36.90271 76.508392 41.169739 76.508392 41.169739 78.519394 43.822693 78.519394 43.822693 72.900391 41.169739 72.900391"/>
      <polygon class="d" points="56.31134 72.900391 56.31134 74.489395 59.801331 74.489395 59.801331 78.519394 62.394287 78.519394 62.394287 74.489395 65.884338 74.489395 65.884338 72.900391 56.31134 72.900391"/>
      <rect class="d" x="48.733704" y="72.899887" width="2.666016" height="5.619003"/>
      <path class="d" d="M57.794312,66.294296c.100037.130005.215027.240997.345032.332001.122986.084991.248962.143997.396973.186996.153992.044006.320007.067001.494019.067001.165955,0,.326965-.022003.47699-.065002.145996-.041.270996-.098999.393982-.181.130005-.087997.247009-.196991.348999-.324997.091003-.113998.169983-.248001.234985-.399002.072998-.171005.127014-.358994.164001-.574997.042053-.238998.063049-.507996.063049-.796997,0-.24501-.02002-.475998-.059998-.686996-.037048-.193008-.090027-.365005-.160034-.526001-.063965-.144012-.141968-.277008-.231018-.394012-.098999-.130997-.21698-.242996-.346985-.334-.123962-.084991-.248962-.144989-.395996-.187988-.153015-.045013-.317017-.067001-.487976-.067001-.166992,0-.328003.021988-.480042.065002-.144958.041-.270996.099991-.393982.182999-.130005.08699-.247986.196991-.351013.324997v.000992c-.091003.113007-.169983.24501-.234009.393005-.072998.164993-.125.345993-.162964.552002-.039978.225998-.062012.477997-.062012.75,0,.264999.020996.511002.060974.733994.036011.203003.088013.383011.15802.549011.062988.148987.140991.28299.229004.399994M58.019348,64.614288v-.001999c0-.273987.020996-.519989.05896-.731995.036011-.190994.085022-.348999.152039-.483994.05896-.118011.129944-.21701.212952-.294006.077026-.072998.158997-.123001.257996-.158997.098022-.035995.209045-.055008.32605-.055008h.004944c.103027,0,.203003.016006.295044.047012.089966.029999.166992.072998.240967.134995.080017.067001.150024.149994.210022.248001l.000977.001999.001038.001999c.050964.087006.096985.186996.133972.296997.041016.122009.070984.253998.091003.403.02301.160004.035034.337006.035034.526001v.003998c0,.283997-.020996.540009-.059998.759003-.036011.197998-.085999.361008-.154053.501007-.05896.120987-.130005.222992-.213989.304001-.076965.07399-.158997.125-.256958.161987-.100037.037003-.208008.055008-.323059.056h-.004944c-.117004-.000992-.228027-.018997-.327026-.054993s-.180969-.085999-.257996-.158997c-.082031-.077011-.153992-.175003-.211975-.292999-.067017-.13501-.117004-.292999-.152039-.48201-.037964-.209991-.05896-.455994-.05896-.728989v-.002014Z"/>
      <path class="d" d="M40.621826,63.041489l-.002014.001007c-.049011.033005-.113037.061996-.190002.087006-.085022.028-.184998.049988-.304993.067993-.127991.018997-.275024.031998-.440002.040009v.457993h1.174011v3.089996h.672974v-4.345993h-.52301c-.03302.104004-.070984.19899-.114014.280991-.039001.076004-.08197.139008-.130005.195007-.042969.050003-.091003.091995-.140991.125l-.000977.000992h-.000977Z"/>
      <path class="d" d="M53.818115,64.186096h0c-.040039.045013-.09906.097-.171021.150009-.078979.057999-.177002.119995-.299011.188004-.130981.072998-.283997.151993-.45697.233002l-.002014.000992c-.217041.102997-.414001.208008-.583984.313004-.159058.097-.292053.192001-.406006.289001-.103027.088989-.190002.177994-.257996.263992-.067017.087997-.126038.186005-.176025.292999-.052979.118011-.093994.243011-.125977.382004-.03302.151001-.05304.313995-.059021.486008h3.396973v-.546005h-2.670959v.000992l-.002014-.000992h-.002991l.000977-.001999v-.001999c.02002-.064011.044983-.126007.077026-.184006.028992-.056.062988-.108994.104004-.160004.039001-.049988.084961-.097992.13501-.141998l.000977-.000992.002014-.001999c.045959-.040009.112-.089005.192993-.141006.088989-.056992.19696-.117996.328003-.188995.143005-.074997.307007-.156006.488953-.240997l.002014-.001007c.174011-.082001.334045-.164993.473999-.246994.132019-.078003.244019-.153.343018-.229004.091003-.070999.169006-.141998.231995-.212997.065979-.072006.122009-.152008.166016-.235001.046997-.085007.080994-.173996.10498-.272003.025024-.102997.038025-.212997.038025-.326996,0-.141006-.019043-.276001-.057007-.399002-.033997-.113007-.083008-.214005-.150024-.309006-.065002-.093002-.145996-.177002-.240967-.25-.093018-.071991-.197021-.134003-.309998-.184998-.118042-.052994-.243042-.093002-.382019-.121002-.150024-.029999-.312988-.044998-.484009-.044998-.180969,0-.35199.016998-.507996.052002-.143005.031006-.270996.074997-.390015.136002-.117981.059006-.223999.132004-.316956.214996-.08905.080002-.166016.173996-.228027.281006-.070007.115997-.119995.244003-.156982.389999-.039001.160004-.058044.338989-.058044.53299h.671021c.000977-.128998.012024-.248993.036987-.355988.022034-.095001.054016-.179001.097046-.255005.039001-.070007.085999-.132004.140991-.184998l.000977-.001007.002014-.001999c.057983-.054993.123962-.104004.195007-.141998.072998-.039001.148987-.067993.234009-.087997.089966-.020996.186951-.031006.287964-.031998h.005005c.095032.000992.186035.009003.270996.026993.080017.016998.152039.041.221008.072998.065979.031006.127991.070007.182007.113998h.000977l.001038.001007.000977.001999c.05603.046005.104004.097.142029.153.039001.056.066956.115997.086975.182007.02002.069.031006.14299.031006.222h.000977v.002991h-.000977c0,.064011-.007019.128006-.020996.189011-.015015.05899-.036011.11499-.065979.168991-.029053.056-.06604.109009-.109009.160004l-.002014.001999-.000977.000992Z"/>
      <path class="d" d="M46.548218,66.294083c-.083984-.024994-.156006-.059998-.221008-.107986-.06897-.050003-.123962-.109009-.171021-.182007-.051941-.082001-.092957-.177994-.119995-.287003h-.672974c.021973.166.062012.317001.119995.447998.052002.119003.117004.220001.198975.309998.077026.084015.164001.154007.267029.212006.106995.061996.224976.106995.361023.139008.151978.035995.322998.054001.505981.054001.185974,0,.36499-.025009.531982-.073013.15802-.046997.294006-.112.426025-.205994.140015-.097992.265015-.220993.372009-.365005.094971-.126999.177979-.272995.244995-.43399.075012-.179001.131958-.371002.170959-.587997.04303-.237.065002-.499008.065002-.777008,0-.257996-.020996-.496994-.062988-.709991-.037964-.192001-.09198-.360001-.164978-.512009-.065002-.136002-.144043-.255997-.234009-.356995-.101013-.112-.21698-.208008-.343994-.285004-.125-.076004-.257019-.130997-.403992-.169006-.158997-.041-.330017-.061996-.507019-.061996s-.346008.018997-.5.055008c-.143005.03299-.27002.080002-.388977.144989-.117004.064011-.223999.143005-.315002.233002-.091003.090012-.170044.19101-.235046.300003-.065002.110001-.113953.227005-.146973.356003-.036987.138992-.05603.287994-.05603.442993,0,.156006.019043.303009.055054.437012.033997.123001.080994.232986.144958.334991.061035.098999.136047.188004.223022.266998.091003.083008.192993.154007.305969.210999.111023.057999.227051.100006.357056.129013.139954.030991.289978.046997.447998.046997.184998,0,.357971-.02301.513977-.069.143982-.042007.265015-.100998.377991-.184998.116028-.086014.216003-.192001.297974-.317001v-.001007h.001038v-.000992l.002014.000992h.001953v.001007l-.000977.001999c-.036987.222-.080017.422989-.127014.598999-.044006.160995-.089966.294998-.143005.410004-.046997.103989-.098999.192993-.149963.256989l-.002014.001999-.000977.001999c-.059998.074005-.128052.137009-.203003.188004-.074036.048996-.14801.083008-.234009.10701-.088989.024994-.184021.036987-.28302.037994h-.005005c-.109009-.001007-.209961-.014008-.299988-.040009M47.854248,63.850082v.002014c-.001038.097992-.013.188995-.036011.272995-.022034.078995-.052002.149002-.093994.214996-.040039.061996-.08905.119003-.144043.169998l-.001953.001007-.002014.000992c-.059021.052002-.122986.096008-.194031.132004-.070984.035995-.143982.061996-.226013.080994-.084961.019012-.176941.028015-.271973.029007h-.005005c-.094971-.000992-.185974-.009995-.27002-.029999-.080994-.018997-.151978-.046005-.220947-.083008-.068054-.036987-.132019-.082993-.188049-.135986l-.000977-.001999-.002014-.002014c-.052002-.048996-.097961-.106995-.13501-.17099-.039001-.067001-.066956-.139999-.087952-.221008-.020996-.087997-.032043-.182999-.032043-.283997v-.003998c0-.102997.012024-.199005.03302-.285995.021973-.082001.051025-.154999.09198-.223007.037048-.063995.083008-.121002.137024-.171005l.002014-.001999.000977-.001999c.05603-.052994.119995-.097992.189026-.134995.070007-.037003.143005-.065002.223999-.084.084961-.018997.174988-.029007.269958-.029999h.005005c.096008.000992.187988.011002.272034.033005.083008.019989.156982.049988.225952.090988.071045.041.137024.09201.193054.151001l.001953.001999.001038.001007c.054993.057999.102966.121994.141968.190002.040039.071991.069031.143997.090027.223999.020996.084.031982.173996.03302.26799v.001999Z"/>
      <path class="d" d="M6.797607,44.584991h4.334961c.009033.303009.020996.609009.038025.914001l.005005.088013h2.35199l-.005005-.098999c-.059998-1.048004-.074036-2.110001-.04303-3.155014l.003052-.095993h-4.335022c.036011-1.255005.125-2.498001.263-3.695999.143982-1.234009.346008-2.470001.601013-3.671997.255981-1.201004.572998-2.412003.945007-3.598999.360962-1.153.784973-2.324005,1.263-3.483002l3.958984,1.763.036987-.090012c.379028-.922989.79303-1.830994,1.231018-2.696991.440002-.869003.917969-1.727997,1.421997-2.550995.505005-.824005,1.052979-1.640015,1.627014-2.425003.572998-.783005,1.19397-1.564011,1.844971-2.322006l.062012-.072998-3.367981-2.727997c.816956-.951004,1.666992-1.861008,2.530945-2.706009.889038-.870987,1.824036-1.703995,2.778015-2.475998.954041-.772003,1.963013-1.513992,2.999023-2.201996,1.005981-.669006,2.07196-1.311996,3.172974-1.912003l1.968018,3.862.085022-.046997c.875-.479004,1.768982-.923996,2.653992-1.322006.886963-.399002,1.800964-.763992,2.710999-1.08699.909973-.322006,1.848999-.612,2.790955-.861008.938049-.248001,1.912048-.464005,2.894043-.64299l.094971-.018005-.901001-4.238998c1.233032-.225998,2.466003-.39801,3.670044-.511002,1.237976-.117004,2.487976-.175995,3.716003-.175995,1.227966,0,2.478943.05899,3.715942.175995,1.202026.112991,2.436035.285004,3.670044.511002l-.901001,4.238998.093994.018005c.982971.178986,1.95697.394989,2.895996.64299.940979.249008,1.880981.539001,2.789978.861008.910034.322998,1.822021.687988,2.710999,1.08699.886047.39801,1.778015.843002,2.655029,1.322006l.083984.046997,1.968018-3.862991c1.099976.600998,2.166992,1.243988,3.174011,1.912994,1.034973.688004,2.044006,1.429993,2.998962,2.201996.954041.772995,1.889038,1.606003,2.777039,2.475998.862976.844009,1.713989,1.754013,2.529968,2.706009l-3.367981,2.727997.062988.072998c.651001.757996,1.271973,1.539001,1.844971,2.322006.575012.785995,1.123047,1.60199,1.626038,2.425003.505005.82399.984009,1.681992,1.422974,2.550995.439026.867004.853027,1.774994,1.231995,2.696991l.036011.090012,3.960022-1.763c.476013,1.15799.901001,2.328995,1.263,3.483002.370972,1.186996.688965,2.397995.94397,3.598999.255005,1.200989.457031,2.435989.600037,3.671997.138977,1.199997.227966,2.442001.263977,3.695999h-4.335022l.003052.095993c.031006,1.049011.016968,2.111008-.041992,3.155014l-.006042.098999h2.353027l.005005-.088013c.014954-.299988.027954-.606995.037964-.914001h4.334045l.001953-.090988c.169006-6.779999-1.281006-13.600998-4.192993-19.725998l-.039001-.082001-3.959961,1.761993c-1.154053-2.397003-2.501038-4.593002-4.112-6.710007l3.367981-2.72699-.054993-.072998c-4.13501-5.375-9.554993-9.764008-15.671997-12.69101l-.082031-.039001-1.968018,3.861008c-2.403992-1.13501-4.83197-1.99501-7.418945-2.626999l.901001-4.238998-.08905-.021011c-6.595947-1.575989-13.569946-1.575989-20.166992,0l-.088013.021011.901001,4.238998c-2.58197.630997-5.009949,1.48999-7.417969,2.626999l-1.968018-3.861008-.083008.039001c-6.117004,2.927002-11.536987,7.31601-15.671997,12.69101l-.054993.072998,3.367981,2.72699c-1.612,2.118011-2.957947,4.314011-4.112,6.710007l-3.959961-1.761993-.039001.082001c-2.913025,6.125-4.362,12.945999-4.192993,19.725998l.002014.090988Z"/>
      <path class="d" d="M80.364014,45.486786l-.007019.100006h2.35498l.005005-.087006c.044006-.694.067017-1.396988.067017-2.088989,0-17.96701-14.617004-32.585007-32.585022-32.585007-17.96698,0-32.584961,14.617004-32.584961,32.585007,0,.695999.021973,1.399002.065979,2.088989l.005981.087006h2.35498l-.006958-.100006c-.048035-.686996-.070984-1.384995-.070984-2.078995,0-2.050003.20697-4.099991.613953-6.091003.395996-1.940994.989014-3.850998,1.762024-5.674988.757019-1.792007,1.695007-3.520004,2.788025-5.136002,1.080994-1.602005,2.322998-3.10701,3.690979-4.476013,1.369019-1.367996,2.873962-2.609985,4.476013-3.690994,1.615967-1.093002,3.343994-2.031006,5.134949-2.789001,1.825012-.770996,3.735046-1.363998,5.676025-1.761002,3.984985-.815994,8.203003-.815994,12.187988,0,1.94104.397003,3.850037.990005,5.674988,1.761002,1.792053.757996,3.52002,1.695999,5.136047,2.789001,1.600952,1.081009,3.106995,2.322998,4.474976,3.690994,1.369019,1.369003,2.611023,2.874008,3.692017,4.476013,1.093018,1.615997,2.029968,3.343994,2.787964,5.136002.772034,1.82399,1.365051,3.733994,1.762024,5.674988.406982,1.991013.614014,4.041.614014,6.094009v.001999c0,.688995-.023987,1.386993-.070984,2.07399"/>
      <path class="d" d="M83.188782,71.636902l.059021-.070007c2.937012-3.447006,5.218994-7.153,6.974976-11.328995l.054016-.130005h-2.557007l-.024963.056c-.65802,1.473007-1.402039,2.908997-2.210999,4.266998-.794006,1.332001-1.682007,2.643997-2.643005,3.902008l-3.368042-2.727005-.05896.076004c-.536987.703995-1.105042,1.395996-1.687012,2.054001-.447998.507996-.921997,1.005997-1.406006,1.494995h-6.502991c3.276001-2.533997,5.852966-5.428009,7.997009-8.979996l.085999-.143005h-2.773987l-.028015.041992c-.621033.933014-1.278992,1.823013-1.957031,2.645004-.682007.826004-1.411987,1.617004-2.169983,2.350998-.757019.733002-1.570984,1.438004-2.419006,2.094009-.843018.651993-1.752991,1.281998-2.705017,1.871994l-.25.119003h-13.453979v.000992l-1.945007,1.486008-1.945007-1.486008v-.000992h-13.453979l-.249023-.119003c-.951965-.589996-1.862976-1.220001-2.705994-1.871994-.847961-.656006-1.661987-1.361008-2.419006-2.094009-.757996-.733994-1.488953-1.524994-2.169983-2.350998-.679016-.821991-1.336975-1.71199-1.95697-2.645004l-.028015-.041992h-2.773987l.085999.143005c2.143005,3.551987,4.721008,6.445999,7.997009,8.979996h-6.503052c-.483948-.488998-.957947-.987-1.406982-1.494995-.58197-.658005-1.150024-1.350006-1.687012-2.054001l-.057983-.076004-3.367981,2.727005c-.960022-1.258011-1.850037-2.570007-2.643005-3.902008-.809021-1.358002-1.55304-2.793991-2.210999-4.266998l-.025024-.056h-2.557007l.054993.130005c1.755005,4.175995,4.036011,7.881989,6.973022,11.328995l.059998.070007,3.367981-2.728012c.394043.457001.804993.906998,1.223022,1.348007l-4.702026,2.106995-5.885986,14.714996h26.781006c-.700989,1.274002-1.322998,2.403999-1.992981,3.621002h28.39801c-.671021-1.217003-1.29303-2.347-1.994019-3.621002h26.781982l-5.885986-14.714996-4.702026-2.106995c.41803-.44101.830017-.891006,1.222046-1.348007l3.368958,2.728012ZM48.118774,69.6689l2.079041,1.587997.000977-.001007v.001007l2.080017-1.587997,23.026001-.009003,4.130981,11.240997h-27.005005c.562988,1.113998,1.072021,2.119003,1.617004,3.195007h-7.69696c.542969-1.076004,1.052002-2.081009,1.615967-3.195007h-27.005005l4.131042-11.240997,23.02594.009003ZM81.222778,71.902893l5.157043,13.387009h-26.861023c.669983,1.317993,1.27301,2.506989,1.929993,3.799988h-22.5c.656006-1.292999,1.26001-2.481995,1.929016-3.799988H14.016785l5.158997-13.387009,2.001038-.897003-4.627014,12.763h27.103027c-.636047,1.225006-1.154053,2.221008-1.736023,3.339005h16.562988c-.580994-1.117996-1.098999-2.113998-1.736023-3.339005h27.104004l-4.625977-12.763,2.000977.897003ZM78.704834,70.774887l4.605957,12.701004h-27.151001c.632996,1.212006,1.148987,2.201004,1.695007,3.248001h-15.312988c.546997-1.046997,1.062988-2.035995,1.695984-3.248001h-27.151978l4.606995-12.701004,2.490967-1.11499h.52002c-1.390991,3.772003-2.869019,7.789001-4.278015,11.613998h26.917053c-.562012,1.121002-1.06604,2.128998-1.626038,3.250992h8.965027c-.562012-1.121994-1.06604-2.12999-1.626038-3.250992h26.916992c-1.41095-3.824997-2.888977-7.841995-4.279968-11.613998h.521973l2.490051,1.11499Z"/>
      <rect class="d" x="56.829712" y="54.419891" width="1.039978" height="1.466003"/>
      <rect class="d" x="53.950745" y="54.419891" width="1.039001" height="1.466003"/>
      <rect class="d" x="42.434753" y="54.419891" width="1.039001" height="1.466003"/>
      <rect class="d" x="48.192749" y="54.419891" width="1.039001" height="1.466003"/>
      <rect class="d" x="45.313721" y="54.419891" width="1.039978" height="1.466003"/>
      <rect class="d" x="51.071716" y="54.419891" width="1.039001" height="1.466003"/>
      <rect class="d" x="46.998718" y="49.454895" width=".687988" height="1.039001"/>
      <rect class="d" x="52.616699" y="47.698898" width=".687012" height="1.039993"/>
      <rect class="d" x="52.616699" y="42.432892" width=".687012" height="1.039001"/>
      <rect class="d" x="51.212708" y="44.187897" width=".687012" height="1.039993"/>
      <rect class="d" x="51.212708" y="42.432892" width=".687012" height="1.039001"/>
      <rect class="d" x="52.616699" y="49.454895" width=".687012" height="1.039001"/>
      <rect class="d" x="51.212708" y="45.943893" width=".687012" height="1.039001"/>
      <rect class="d" x="46.998718" y="47.698898" width=".687988" height="1.039993"/>
      <rect class="d" x="52.616699" y="44.187897" width=".687012" height="1.039993"/>
      <rect class="d" x="48.40271" y="47.698898" width=".687988" height="1.039993"/>
      <rect class="d" x="48.40271" y="44.187897" width=".687988" height="1.039993"/>
      <rect class="d" x="48.40271" y="45.943893" width=".687988" height="1.039001"/>
      <rect class="d" x="48.40271" y="49.454895" width=".687988" height="1.039001"/>
      <rect class="d" x="46.998718" y="45.943893" width=".687988" height="1.039001"/>
      <rect class="d" x="46.998718" y="42.432892" width=".687988" height="1.039001"/>
      <rect class="d" x="46.998718" y="44.187897" width=".687988" height="1.039993"/>
      <rect class="d" x="49.807739" y="44.187897" width=".687988" height="1.039993"/>
      <rect class="d" x="48.40271" y="42.432892" width=".687988" height="1.039001"/>
      <rect class="d" x="49.807739" y="42.432892" width=".687988" height="1.039001"/>
      <rect class="d" x="51.212708" y="49.454895" width=".687012" height="1.039001"/>
      <rect class="d" x="51.212708" y="47.698898" width=".687012" height="1.039993"/>
      <rect class="d" x="49.807739" y="49.454895" width=".687988" height="1.039001"/>
      <rect class="d" x="49.807739" y="47.698898" width=".687988" height="1.039993"/>
      <rect class="d" x="49.807739" y="45.943893" width=".687988" height="1.039001"/>
      <rect class="d" x="52.616699" y="45.943893" width=".687012" height="1.039001"/>
      <rect class="d" x="49.807739" y="32.460892" width=".687988" height="1.039993"/>
      <rect class="d" x="49.807739" y="34.216888" width=".687988" height="1.039001"/>
      <rect class="d" x="51.212708" y="34.216888" width=".687012" height="1.039001"/>
      <rect class="d" x="48.40271" y="34.216888" width=".687988" height="1.039001"/>
      <rect class="d" x="48.403748" y="32.460892" width=".687988" height="1.039993"/>
      <rect class="d" x="49.807739" y="38.166885" width=".687988" height="1.039993"/>
      <rect class="d" x="51.212708" y="32.460892" width=".687012" height="1.039993"/>
      <rect class="d" x="51.212708" y="38.166885" width=".687012" height="1.039993"/>
      <rect class="d" x="48.403748" y="38.166885" width=".687988" height="1.039993"/>
      <polygon class="d" points="50.195007 21.491196 50.198975 21.541199 51.329956 22.363205 50.881958 20.989197 50.876953 20.980209 50.880005 20.97821 50.878967 20.976196 50.888 20.972198 52.057007 20.123199 50.612 20.123199 50.60199 20.126205 50.600952 20.123199 50.597961 20.123199 50.597961 20.113205 50.151978 18.739197 49.705994 20.113205 49.705994 20.123199 49.701965 20.123199 49.700989 20.126205 49.691956 20.123199 48.245972 20.123199 49.415955 20.972198 49.424988 20.976196 49.42395 20.979202 49.425964 20.980209 49.420959 20.989197 48.973999 22.363205 50.10498 21.541199 50.107971 21.491196 50.195007 21.491196"/>
      <polygon class="d" points="87.721436 46.496094 83.935425 47.898102 83.935425 47.900101 83.929382 47.900101 83.924377 47.9021 83.923401 47.900101 77.221436 47.900101 74.606384 48.600098 74.606384 48.939102 100.304382 48.939102 100.304382 48.600098 97.689392 47.900101 91.518433 47.900101 91.518433 47.9021 91.51239 47.900101 91.506409 47.900101 91.506409 47.898102 87.721436 46.496094"/>
      <polygon class="d" points="25.697021 48.600586 23.083008 47.899597 16.380981 47.899597 16.380005 47.901596 16.373962 47.899597 16.367981 47.899597 16.367981 47.897598 12.583008 46.496597 8.797974 47.897598 8.797974 47.899597 8.791992 47.899597 8.786011 47.901596 8.784973 47.899597 2.615021 47.899597 0 48.600586 0 48.93959 25.697021 48.93959 25.697021 48.600586"/>
      <rect class="d" x="38.571716" y="48.43689" width=".687988" height="1.039993"/>
      <rect class="d" x="39.976746" y="48.43689" width=".687988" height="1.039993"/>
      <rect class="d" x="42.785767" y="48.43689" width=".687988" height="1.039993"/>
      <rect class="d" x="41.381714" y="48.43689" width=".687012" height="1.039993"/>
      <rect class="d" x="30.145752" y="48.43689" width=".687988" height="1.039993"/>
      <rect class="d" x="35.763733" y="48.43689" width=".687012" height="1.039993"/>
      <rect class="d" x="32.953735" y="48.43689" width=".687988" height="1.039993"/>
      <rect class="d" x="34.358704" y="48.43689" width=".687988" height="1.039993"/>
      <rect class="d" x="37.167725" y="48.43689" width=".687988" height="1.039993"/>
      <rect class="d" x="31.549744" y="48.43689" width=".687988" height="1.039993"/>
      <rect class="d" x="39.976746" y="50.027893" width=".687988" height="1.039001"/>
      <rect class="d" x="38.571716" y="50.027893" width=".687988" height="1.039001"/>
      <rect class="d" x="30.145752" y="50.027893" width=".687988" height="1.039001"/>
      <rect class="d" x="32.953735" y="50.027893" width=".687988" height="1.039001"/>
      <rect class="d" x="35.763733" y="50.027893" width=".687012" height="1.039001"/>
      <rect class="d" x="34.358704" y="50.027893" width=".687988" height="1.039001"/>
      <rect class="d" x="37.167725" y="50.027893" width=".687988" height="1.039001"/>
      <rect class="d" x="31.549744" y="50.027893" width=".687988" height="1.039001"/>
      <rect class="d" x="39.976746" y="53.208893" width=".687988" height="1.039993"/>
      <rect class="d" x="38.571716" y="53.208893" width=".687988" height="1.039993"/>
      <rect class="d" x="32.953735" y="53.208893" width=".687988" height="1.039993"/>
      <rect class="d" x="31.549744" y="53.208893" width=".687988" height="1.039993"/>
      <rect class="d" x="30.145752" y="53.208893" width=".687988" height="1.039993"/>
      <rect class="d" x="35.763733" y="53.208893" width=".687012" height="1.039993"/>
      <rect class="d" x="34.358704" y="53.208893" width=".687988" height="1.039993"/>
      <rect class="d" x="37.167725" y="53.208893" width=".687988" height="1.039993"/>
      <rect class="d" x="39.976746" y="54.798889" width=".687988" height="1.039993"/>
      <rect class="d" x="38.571716" y="54.798889" width=".687988" height="1.039993"/>
      <rect class="d" x="32.953735" y="54.798889" width=".687988" height="1.039993"/>
      <rect class="d" x="31.549744" y="54.798889" width=".687988" height="1.039993"/>
      <rect class="d" x="30.145752" y="54.798889" width=".687988" height="1.039993"/>
      <rect class="d" x="35.763733" y="54.798889" width=".687012" height="1.039993"/>
      <rect class="d" x="34.358704" y="54.798889" width=".687988" height="1.039993"/>
      <rect class="d" x="37.167725" y="54.798889" width=".687988" height="1.039993"/>
      <rect class="d" x="39.976746" y="51.618881" width=".687988" height="1.039001"/>
      <rect class="d" x="38.571716" y="51.618881" width=".687988" height="1.039001"/>
      <rect class="d" x="31.549744" y="51.618881" width=".687988" height="1.039001"/>
      <rect class="d" x="30.145752" y="51.618881" width=".687988" height="1.039001"/>
      <rect class="d" x="35.763733" y="51.618881" width=".687012" height="1.039001"/>
      <rect class="d" x="32.953735" y="51.618881" width=".687988" height="1.039001"/>
      <rect class="d" x="34.358704" y="51.618881" width=".687988" height="1.039001"/>
      <rect class="d" x="37.167725" y="51.618881" width=".687988" height="1.039001"/>
      <rect class="d" x="38.571716" y="46.846893" width=".687988" height="1.039001"/>
      <rect class="d" x="42.785767" y="46.846893" width=".687988" height="1.039001"/>
      <rect class="d" x="39.976746" y="46.846893" width=".687988" height="1.039001"/>
      <rect class="d" x="41.381714" y="46.846893" width=".687012" height="1.039001"/>
      <rect class="d" x="37.167725" y="46.846893" width=".687988" height="1.039001"/>
      <rect class="d" x="30.145752" y="46.846893" width=".687988" height="1.039001"/>
      <rect class="d" x="34.358704" y="46.846893" width=".687988" height="1.039001"/>
      <rect class="d" x="31.549744" y="46.846893" width=".687988" height="1.039001"/>
      <rect class="d" x="35.763733" y="46.846893" width=".687012" height="1.039001"/>
      <rect class="d" x="32.953735" y="46.846893" width=".687988" height="1.039001"/>
      <rect class="d" x="25.58075" y="51.683899" width=".687988" height="1.039993"/>
      <rect class="d" x="25.58075" y="53.43988" width=".687988" height="1.039001"/>
      <rect class="d" x="6.444763" y="53.025894" width=".687988" height="1.039993"/>
      <rect class="d" x="5.04071" y="53.025894" width=".687012" height="1.039993"/>
      <rect class="d" x="3.635742" y="53.025894" width=".687012" height="1.039993"/>
      <rect class="d" x="2.230743" y="53.025894" width=".687988" height="1.039993"/>
      <rect class="d" x="5.04071" y="51.330887" width=".687012" height="1.039001"/>
      <rect class="d" x="6.444763" y="51.330887" width=".687988" height="1.039001"/>
      <rect class="d" x="3.635742" y="51.330887" width=".687012" height="1.039001"/>
      <rect class="d" x="2.230743" y="51.330887" width=".687988" height="1.039001"/>
      <rect class="d" x="14.349731" y="53.025894" width=".687988" height="1.039993"/>
      <rect class="d" x="12.94574" y="53.025894" width=".687988" height="1.039993"/>
      <rect class="d" x="11.541687" y="53.025894" width=".687012" height="1.039993"/>
      <rect class="d" x="10.136719" y="53.025894" width=".687012" height="1.039993"/>
      <rect class="d" x="12.94574" y="51.330887" width=".687988" height="1.039001"/>
      <rect class="d" x="14.349731" y="51.330887" width=".687988" height="1.039001"/>
      <rect class="d" x="11.541687" y="51.330887" width=".687012" height="1.039001"/>
      <rect class="d" x="10.136719" y="51.330887" width=".687012" height="1.039001"/>
      <rect class="d" x="19.609741" y="51.330887" width=".687988" height="1.039001"/>
      <rect class="d" x="21.015747" y="51.330887" width=".687012" height="1.039001"/>
      <rect class="d" x="18.20575" y="51.330887" width=".687988" height="1.039001"/>
      <rect class="d" x="22.419739" y="51.330887" width=".687988" height="1.039001"/>
      <rect class="d" x="18.20575" y="53.025894" width=".687988" height="1.039993"/>
      <rect class="d" x="19.609741" y="53.025894" width=".687988" height="1.039993"/>
      <rect class="d" x="21.015747" y="53.025894" width=".687012" height="1.039993"/>
      <rect class="d" x="22.419739" y="53.025894" width=".687988" height="1.039993"/>
      <rect class="d" x="6.444763" y="54.722885" width=".687988" height="1.039001"/>
      <rect class="d" x="5.04071" y="54.722885" width=".687012" height="1.039001"/>
      <rect class="d" x="3.635742" y="54.722885" width=".687012" height="1.039001"/>
      <rect class="d" x="2.230743" y="54.722885" width=".687988" height="1.039001"/>
      <rect class="d" x="14.349731" y="54.722885" width=".687988" height="1.039001"/>
      <rect class="d" x="12.94574" y="54.722885" width=".687988" height="1.039001"/>
      <rect class="d" x="11.541687" y="54.722885" width=".687012" height="1.039001"/>
      <rect class="d" x="10.136719" y="54.722885" width=".687012" height="1.039001"/>
      <rect class="d" x="18.20575" y="54.722885" width=".687988" height="1.039001"/>
      <rect class="d" x="19.609741" y="54.722885" width=".687988" height="1.039001"/>
      <rect class="d" x="21.015747" y="54.722885" width=".687012" height="1.039001"/>
      <rect class="d" x="22.419739" y="54.722885" width=".687988" height="1.039001"/>
      <rect class="d" x="61.030762" y="48.435883" width=".687988" height="1.039993"/>
      <rect class="d" x="59.626709" y="48.435883" width=".687012" height="1.039993"/>
      <rect class="d" x="56.817688" y="48.435883" width=".687012" height="1.039993"/>
      <rect class="d" x="58.221741" y="48.435883" width=".687012" height="1.039993"/>
      <rect class="d" x="69.457764" y="48.435883" width=".687988" height="1.039993"/>
      <rect class="d" x="63.838745" y="48.435883" width=".687988" height="1.039993"/>
      <rect class="d" x="66.648743" y="48.435883" width=".687012" height="1.039993"/>
      <rect class="d" x="65.243713" y="48.435883" width=".687988" height="1.039993"/>
      <rect class="d" x="62.434753" y="48.435883" width=".687988" height="1.039993"/>
      <rect class="d" x="68.052734" y="48.435883" width=".687988" height="1.039993"/>
      <rect class="d" x="59.626709" y="50.025894" width=".687012" height="1.039993"/>
      <rect class="d" x="61.030762" y="50.025894" width=".687988" height="1.039993"/>
      <rect class="d" x="69.457764" y="50.025894" width=".687988" height="1.039993"/>
      <rect class="d" x="66.648743" y="50.025894" width=".687012" height="1.039993"/>
      <rect class="d" x="63.838745" y="50.025894" width=".687988" height="1.039993"/>
      <rect class="d" x="65.243713" y="50.025894" width=".687988" height="1.039993"/>
      <rect class="d" x="62.434753" y="50.025894" width=".687988" height="1.039993"/>
      <rect class="d" x="68.052734" y="50.025894" width=".687988" height="1.039993"/>
      <rect class="d" x="59.626709" y="53.206894" width=".687012" height="1.039993"/>
      <rect class="d" x="61.030762" y="53.206894" width=".687988" height="1.039993"/>
      <rect class="d" x="66.648743" y="53.206894" width=".687012" height="1.039993"/>
      <rect class="d" x="68.052734" y="53.206894" width=".687988" height="1.039993"/>
      <rect class="d" x="69.457764" y="53.206894" width=".687988" height="1.039993"/>
      <rect class="d" x="63.838745" y="53.206894" width=".687988" height="1.039993"/>
      <rect class="d" x="65.243713" y="53.206894" width=".687988" height="1.039993"/>
      <rect class="d" x="62.434753" y="53.206894" width=".687988" height="1.039993"/>
      <rect class="d" x="59.626709" y="54.797882" width=".687012" height="1.039993"/>
      <rect class="d" x="61.030762" y="54.797882" width=".687988" height="1.039993"/>
      <rect class="d" x="66.648743" y="54.797882" width=".687012" height="1.039993"/>
      <rect class="d" x="68.052734" y="54.797882" width=".687988" height="1.039993"/>
      <rect class="d" x="69.457764" y="54.797882" width=".687988" height="1.039993"/>
      <rect class="d" x="63.838745" y="54.797882" width=".687988" height="1.039993"/>
      <rect class="d" x="65.243713" y="54.797882" width=".687988" height="1.039993"/>
      <rect class="d" x="62.434753" y="54.797882" width=".687988" height="1.039993"/>
      <rect class="d" x="59.626709" y="51.616882" width=".687012" height="1.039001"/>
      <rect class="d" x="61.030762" y="51.616882" width=".687988" height="1.039001"/>
      <rect class="d" x="68.052734" y="51.616882" width=".687988" height="1.039001"/>
      <rect class="d" x="69.457764" y="51.616882" width=".687988" height="1.039001"/>
      <rect class="d" x="63.838745" y="51.616882" width=".687988" height="1.039001"/>
      <rect class="d" x="66.648743" y="51.616882" width=".687012" height="1.039001"/>
      <rect class="d" x="65.243713" y="51.616882" width=".687988" height="1.039001"/>
      <rect class="d" x="62.434753" y="51.616882" width=".687988" height="1.039001"/>
      <rect class="d" x="61.030762" y="46.844894" width=".687988" height="1.039993"/>
      <rect class="d" x="56.817688" y="46.844894" width=".687012" height="1.039993"/>
      <rect class="d" x="59.626709" y="46.844894" width=".687012" height="1.039993"/>
      <rect class="d" x="58.221741" y="46.844894" width=".687012" height="1.039993"/>
      <rect class="d" x="62.434753" y="46.844894" width=".687988" height="1.039993"/>
      <rect class="d" x="69.457764" y="46.844894" width=".687988" height="1.039993"/>
      <rect class="d" x="65.243713" y="46.844894" width=".687988" height="1.039993"/>
      <rect class="d" x="68.052734" y="46.844894" width=".687988" height="1.039993"/>
      <rect class="d" x="63.838745" y="46.844894" width=".687988" height="1.039993"/>
      <rect class="d" x="66.648743" y="46.844894" width=".687012" height="1.039993"/>
      <rect class="d" x="74.021729" y="51.682892" width=".687988" height="1.039001"/>
      <rect class="d" x="74.021729" y="53.437881" width=".687988" height="1.039993"/>
      <rect class="d" x="93.157715" y="53.024887" width=".687988" height="1.039001"/>
      <rect class="d" x="94.562744" y="53.024887" width=".687988" height="1.039001"/>
      <rect class="d" x="95.967712" y="53.024887" width=".687012" height="1.039001"/>
      <rect class="d" x="97.371704" y="53.024887" width=".687012" height="1.039001"/>
      <rect class="d" x="94.562744" y="51.327896" width=".687988" height="1.039993"/>
      <rect class="d" x="93.157715" y="51.327896" width=".687988" height="1.039993"/>
      <rect class="d" x="95.967712" y="51.327896" width=".687012" height="1.039993"/>
      <rect class="d" x="97.371704" y="51.327896" width=".687012" height="1.039993"/>
      <rect class="d" x="85.252747" y="53.024887" width=".687988" height="1.039001"/>
      <rect class="d" x="86.656738" y="53.024887" width=".687988" height="1.039001"/>
      <rect class="d" x="88.061707" y="53.024887" width=".687988" height="1.039001"/>
      <rect class="d" x="89.466736" y="53.024887" width=".687012" height="1.039001"/>
      <rect class="d" x="86.656738" y="51.327896" width=".687988" height="1.039993"/>
      <rect class="d" x="85.252747" y="51.327896" width=".687988" height="1.039993"/>
      <rect class="d" x="88.061707" y="51.327896" width=".687988" height="1.039993"/>
      <rect class="d" x="89.466736" y="51.327896" width=".687012" height="1.039993"/>
      <rect class="d" x="79.991699" y="51.327896" width=".687012" height="1.039993"/>
      <rect class="d" x="78.586731" y="51.327896" width=".687988" height="1.039993"/>
      <rect class="d" x="81.396729" y="51.327896" width=".687012" height="1.039993"/>
      <rect class="d" x="77.182739" y="51.327896" width=".687988" height="1.039993"/>
      <rect class="d" x="81.396729" y="53.024887" width=".687012" height="1.039001"/>
      <rect class="d" x="79.991699" y="53.024887" width=".687012" height="1.039001"/>
      <rect class="d" x="78.586731" y="53.024887" width=".687988" height="1.039001"/>
      <rect class="d" x="77.182739" y="53.024887" width=".687988" height="1.039001"/>
      <rect class="d" x="93.157715" y="54.719894" width=".687988" height="1.039993"/>
      <rect class="d" x="94.562744" y="54.719894" width=".687988" height="1.039993"/>
      <rect class="d" x="95.967712" y="54.719894" width=".687012" height="1.039993"/>
      <rect class="d" x="97.371704" y="54.719894" width=".687012" height="1.039993"/>
      <rect class="d" x="85.252747" y="54.719894" width=".687988" height="1.039993"/>
      <rect class="d" x="86.656738" y="54.719894" width=".687988" height="1.039993"/>
      <rect class="d" x="88.061707" y="54.719894" width=".687988" height="1.039993"/>
      <rect class="d" x="89.466736" y="54.719894" width=".687012" height="1.039993"/>
      <rect class="d" x="81.396729" y="54.719894" width=".687012" height="1.039993"/>
      <rect class="d" x="79.991699" y="54.719894" width=".687012" height="1.039993"/>
      <rect class="d" x="78.586731" y="54.719894" width=".687988" height="1.039993"/>
      <rect class="d" x="77.182739" y="54.719894" width=".687988" height="1.039993"/>
      <polygon class="d" points="28.767334 43.561493 26.15332 44.261505 26.15332 44.600494 44.885315 44.600494 44.885315 43.561493 28.767334 43.561493"/>
      <polygon class="d" points="74.151123 44.600082 74.151123 44.262085 71.536072 43.561096 55.412109 43.561096 55.412109 44.600082 74.151123 44.600082"/>
      <polygon class="d" points="53.996826 30.971695 53.996826 30.619705 46.296814 30.619705 46.296814 30.9617 46.994812 31.658707 53.309814 31.658707 53.996826 30.971695"/>
      <polygon class="d" points="54.709717 36.398483 54.709717 36.057495 45.594666 36.057495 45.594666 36.398483 46.286682 37.091492 54.016663 37.091492 54.709717 36.398483"/>
      <polygon class="d" points="45.580811 41.314987 54.723755 41.314987 55.411804 41.314987 55.415771 41.314987 56.11377 40.616989 56.11377 40.276001 54.006775 40.276001 54.006775 40.264999 53.318787 40.264999 53.318787 40.276001 46.984802 40.276001 46.984802 40.264999 46.296753 40.264999 46.296753 40.276001 44.189758 40.276001 44.189758 40.616989 44.888794 41.314987 44.892761 41.314987 45.580811 41.314987"/>
      <polygon class="d" points="50.499695 29.198792 50.492676 29.198792 50.491638 29.192795 50.261658 21.580795 50.159668 21.513794 50.153687 21.505798 50.151672 21.507797 50.148682 21.505798 50.143677 21.513794 50.038635 21.581802 49.811646 29.191803 49.811646 29.198792 49.804688 29.198792 49.42865 29.198792 49.091675 30.619797 49.456665 30.619797 50.847656 30.619797 51.212646 30.619797 50.875671 29.198792 50.499695 29.198792"/>
      <polygon class="d" points="50.149109 21.50589 50.1521 21.507904 50.154053 21.50589 50.160095 21.513901 50.199097 21.541901 50.195068 21.490891 50.108093 21.490891 50.105103 21.541901 50.143066 21.513901 50.149109 21.50589"/>
      <path class="d" d="M100.002747,56.60289h-.351013v-6.947006h-26.333984v.688004h2.120972v5.546005l.002991.001999-.002991.003998v.005005h-.002991l-.002014.001999-.003967-.001999h-.004028v-.003998c-.617004-.460007-1.47699-.460007-2.093018,0v.003998h-.005005l-.003967.001999-.002014-.001999h-.003967v1.389999h.000977c.004028-.581009.478027-1.054001,1.059998-1.054001.582031,0,1.057007.472992,1.059998,1.054001v1.403992h24.564026v-2.091995ZM92.27771,50.343887h6.685974v6.259003h-6.685974v-6.259003ZM83.851746,50.343887h7.739014v6.259003h-7.739014v-6.259003ZM76.127747,50.343887h7.036011v6.259003h-7.036011v-6.259003ZM99.314697,58.006882h-23.187012v-.716003h23.187012v.716003Z"/>
      <path class="d" d="M26.982483,55.900589l-.002991.001999-.002991-.001999h-.005005v-.003998c-.616028-.459991-1.47699-.459991-2.093018,0v.003998h-.005005l-.003967.001999-.002014-.001999h-.002991v-.00499l-.002014-.004013.002014-.001999v-5.54599h2.120972v-.688004H.652496v6.946991h-.35199v2.09201h24.563995v-1.404007c.003967-.580994.477966-1.052994,1.060974-1.052994.582031,0,1.05603.472,1.059998,1.052994v-1.389999h-.002991ZM8.713501,50.343597h7.737976v6.258987h-7.737976v-6.258987ZM1.339508,50.343597h6.686005v6.258987H1.339508v-6.258987ZM24.176514,57.304596v.701996H.988495v-.716003h23.188019v.014008ZM24.176514,56.602585h-7.036011v-6.258987h7.036011v6.258987Z"/>
      <polygon class="d" points="46.985107 37.327194 46.978088 37.327194 46.978088 36.870209 46.289062 36.870209 46.293091 36.875198 46.297058 36.875198 46.297058 36.880203 46.299072 36.883209 46.297058 36.887207 46.297058 40.487198 46.985107 40.487198 46.985107 37.327194"/>
      <polygon class="d" points="46.99884 36.322296 47.686829 36.322296 47.686829 31.511307 46.99884 31.661301 46.99884 31.6633 47.001831 31.666306 46.99884 31.519302 46.99884 36.322296"/>
      <path class="d" d="M73.317566,55.895599l-.001953-.004013.001953-.001999v-10.572998h-17.906006v-3.990997l-.002991-.003006.002991-.002991v-.003998h-.687988v10.29599h-9.143005v-10.29599h-.687988v.003998l.002991.002991-.002991.003006v3.990997h-17.90802v10.572998l.003052.001999-.003052.004013v2.798996h8.769043l.002991-.001999.002991.001999h.004028v.00499l.002991.003006-.002991.003006v.002991h-.004028l-.697998.699005v.003998h-.004028l-.002991.003006-.002991-.003006h-.987l-.688965.688004h1.966003l2.805969-2.805008v-.003998h.004028l.001953-.002991.003052.002991h3.213989l.002991-.002991.002991.002991h.005005v.003998l.002991.003006-.002991.003006v.003998h-.005005l-2.794983,2.794998h23.139954l-2.794983-2.794998h-.003967v-.003998l-.003052-.003006.003052-.003006v-.003998h.003967l.002991-.002991.002991.002991h3.215027l.002991-.002991.002014.002991h.003967v.003998l2.805054,2.805008h1.96698l-.689026-.688004h-.987l-.002991.003006-.002991-.003006h-.003967v-.003998l-.698059-.699005h-.003967v-.002991l-.002991-.003006.002991-.003006v-.00499h.003967l.003052-.001999.002991.001999h8.766968v-2.798996ZM56.82959,53.016586h-13.356018v-.715988h13.356018v.715988ZM37.167603,57.300598v.003998h-.004028l-.697998.697998v.003998h-.003967l-.003052.003006-.002991-.003006h-8.781982v-.716003h9.484009l.002991-.002991.002991.002991h.004028v.003998l.002991.003006-.002991.003006ZM59.338562,58.694595l.003052-.001999.002991.001999h.003967v.00499l.697998.698013h.004028v.003998l.002991.002991-.002991.003006v.003998h-.004028l-.002991.003006-.002991-.003006h-19.776978l-.003052.003006-.002991-.003006h-.003967v-.003998l-.002991-.003006.002991-.002991v-.003998h.003967l.697998-.698013v-.00499h.004028l.002991-.001999.002991.001999h18.372986ZM58.642578,57.993591h.004028v.003998l.002991.001999-.002991.003006v.003998h-.004028l-.003967.003006-.003052-.003006h-16.967957l-.002991.003006-.003052-.003006h-.003967v-.003998l-.002991-.003006.002991-.001999v-.003998h.003967l.697998-.699005v-.003998h.004028l.002991-.002991.002991.002991h15.564026l.002991-.002991.002991.002991h.004028v.003998l.698975.699005ZM72.630615,58.006592h-8.782043l-.002991.003006-.002991-.003006h-.004028v-.003998l-.697998-.697998h-.003967v-.003998l-.002991-.003006.002991-.003006v-.003998h.003967l.002991-.002991.003052.002991h9.484009v.716003ZM72.630615,56.602585h-2.473022v-.001999h-.687012v.001999h-.71698v-.001999h-.687012v.001999h-.71698v-.001999h-.689026v.001999h-.716003v-.001999h-.687988v.001999h-.716003v-.001999h-.687988v.001999h-.716003v-.001999h-.689026v.001999h-.716003v-.001999h-.687988v.001999h-.71698v-.001999h-.687988v.001999h-31.965027v-10.597992h17.218994v5.606995h-2.809021v.688004h.70105v.716995h-.70105v.688004h16.137024v-.688004h-.702026v-.716995h.702026v-.688004h-2.809021v-5.606995h17.219055v10.597992Z"/>
      <polygon class="d" points="53.30542 31.661591 52.617371 31.511597 52.617371 36.322601 53.30542 36.322601 53.30542 31.785599 53.301392 31.666595 53.30542 31.930603 53.30542 31.661591"/>
      <polygon class="d" points="54.006653 36.886688 54.003601 36.883698 54.006653 36.880692 54.006653 36.875702 54.011597 36.875702 54.015625 36.870697 53.318604 36.870697 53.318604 36.875702 53.319641 36.875702 53.319641 40.486694 54.006653 40.486694 54.006653 36.886688"/>
      <rect class="d" x="44.885742" y="43.560883" width=".007019" height="1.039001"/>
    </g>
  </g>
</svg>